<mxfile host="app.diagrams.net" modified="2023-03-09T23:27:05.303Z" agent="5.0 (Windows NT 10.0; Win64; x64) AppleWebKit/537.36 (KHTML, like Gecko) Chrome/109.0.0.0 Safari/537.36" etag="BMWBiUubOe_FsAibOQQW" version="21.0.6" type="github">
  <diagram name="Page-1" id="2YBvvXClWsGukQMizWep">
    <mxGraphModel dx="1644" dy="430" grid="1" gridSize="10" guides="1" tooltips="1" connect="1" arrows="1" fold="1" page="1" pageScale="1" pageWidth="850" pageHeight="1100" math="0" shadow="0">
      <root>
        <mxCell id="0" />
        <mxCell id="1" parent="0" />
        <mxCell id="aM9ryv3xv72pqoxQDRHE-1" value="Filter" style="shape=umlLifeline;perimeter=lifelinePerimeter;whiteSpace=wrap;html=1;container=0;dropTarget=0;collapsible=0;recursiveResize=0;outlineConnect=0;portConstraint=eastwest;newEdgeStyle={&quot;edgeStyle&quot;:&quot;elbowEdgeStyle&quot;,&quot;elbow&quot;:&quot;vertical&quot;,&quot;curved&quot;:0,&quot;rounded&quot;:0};" parent="1" vertex="1">
          <mxGeometry x="40" y="40" width="100" height="300" as="geometry" />
        </mxCell>
        <mxCell id="aM9ryv3xv72pqoxQDRHE-2" value="" style="html=1;points=[];perimeter=orthogonalPerimeter;outlineConnect=0;targetShapes=umlLifeline;portConstraint=eastwest;newEdgeStyle={&quot;edgeStyle&quot;:&quot;elbowEdgeStyle&quot;,&quot;elbow&quot;:&quot;vertical&quot;,&quot;curved&quot;:0,&quot;rounded&quot;:0};" parent="aM9ryv3xv72pqoxQDRHE-1" vertex="1">
          <mxGeometry x="45" y="70" width="10" height="190" as="geometry" />
        </mxCell>
        <mxCell id="aM9ryv3xv72pqoxQDRHE-3" value="dispatch" style="html=1;verticalAlign=bottom;startArrow=oval;endArrow=block;startSize=8;edgeStyle=elbowEdgeStyle;elbow=vertical;curved=0;rounded=0;" parent="aM9ryv3xv72pqoxQDRHE-1" target="aM9ryv3xv72pqoxQDRHE-2" edge="1">
          <mxGeometry relative="1" as="geometry">
            <mxPoint x="-15" y="70" as="sourcePoint" />
          </mxGeometry>
        </mxCell>
        <mxCell id="aM9ryv3xv72pqoxQDRHE-4" value="" style="html=1;points=[];perimeter=orthogonalPerimeter;outlineConnect=0;targetShapes=umlLifeline;portConstraint=eastwest;newEdgeStyle={&quot;edgeStyle&quot;:&quot;elbowEdgeStyle&quot;,&quot;elbow&quot;:&quot;vertical&quot;,&quot;curved&quot;:0,&quot;rounded&quot;:0};" parent="aM9ryv3xv72pqoxQDRHE-1" vertex="1">
          <mxGeometry x="50" y="120" width="10" height="80" as="geometry" />
        </mxCell>
        <mxCell id="aM9ryv3xv72pqoxQDRHE-5" value="Provider" style="shape=umlLifeline;perimeter=lifelinePerimeter;whiteSpace=wrap;html=1;container=0;dropTarget=0;collapsible=0;recursiveResize=0;outlineConnect=0;portConstraint=eastwest;newEdgeStyle={&quot;edgeStyle&quot;:&quot;elbowEdgeStyle&quot;,&quot;elbow&quot;:&quot;vertical&quot;,&quot;curved&quot;:0,&quot;rounded&quot;:0};" parent="1" vertex="1">
          <mxGeometry x="220" y="40" width="100" height="300" as="geometry" />
        </mxCell>
        <mxCell id="aM9ryv3xv72pqoxQDRHE-6" value="" style="html=1;points=[];perimeter=orthogonalPerimeter;outlineConnect=0;targetShapes=umlLifeline;portConstraint=eastwest;newEdgeStyle={&quot;edgeStyle&quot;:&quot;elbowEdgeStyle&quot;,&quot;elbow&quot;:&quot;vertical&quot;,&quot;curved&quot;:0,&quot;rounded&quot;:0};" parent="aM9ryv3xv72pqoxQDRHE-5" vertex="1">
          <mxGeometry x="45" y="80" width="10" height="170" as="geometry" />
        </mxCell>
        <mxCell id="aM9ryv3xv72pqoxQDRHE-7" value="dispatch" style="html=1;verticalAlign=bottom;endArrow=block;edgeStyle=elbowEdgeStyle;elbow=vertical;curved=0;rounded=0;" parent="1" source="aM9ryv3xv72pqoxQDRHE-2" target="aM9ryv3xv72pqoxQDRHE-6" edge="1">
          <mxGeometry relative="1" as="geometry">
            <mxPoint x="195" y="130" as="sourcePoint" />
            <Array as="points">
              <mxPoint x="180" y="120" />
            </Array>
          </mxGeometry>
        </mxCell>
        <mxCell id="aM9ryv3xv72pqoxQDRHE-8" value="return" style="html=1;verticalAlign=bottom;endArrow=open;dashed=1;endSize=8;edgeStyle=elbowEdgeStyle;elbow=vertical;curved=0;rounded=0;" parent="1" source="aM9ryv3xv72pqoxQDRHE-6" target="aM9ryv3xv72pqoxQDRHE-2" edge="1">
          <mxGeometry relative="1" as="geometry">
            <mxPoint x="195" y="205" as="targetPoint" />
            <Array as="points">
              <mxPoint x="190" y="280" />
            </Array>
          </mxGeometry>
        </mxCell>
        <mxCell id="aM9ryv3xv72pqoxQDRHE-9" value="callback" style="html=1;verticalAlign=bottom;endArrow=block;edgeStyle=elbowEdgeStyle;elbow=vertical;curved=0;rounded=0;" parent="1" source="aM9ryv3xv72pqoxQDRHE-6" target="aM9ryv3xv72pqoxQDRHE-4" edge="1">
          <mxGeometry relative="1" as="geometry">
            <mxPoint x="175" y="160" as="sourcePoint" />
            <Array as="points">
              <mxPoint x="190" y="160" />
            </Array>
          </mxGeometry>
        </mxCell>
        <mxCell id="aM9ryv3xv72pqoxQDRHE-10" value="return" style="html=1;verticalAlign=bottom;endArrow=open;dashed=1;endSize=8;edgeStyle=elbowEdgeStyle;elbow=vertical;curved=0;rounded=0;" parent="1" source="aM9ryv3xv72pqoxQDRHE-4" target="aM9ryv3xv72pqoxQDRHE-6" edge="1">
          <mxGeometry relative="1" as="geometry">
            <mxPoint x="175" y="235" as="targetPoint" />
            <Array as="points">
              <mxPoint x="180" y="230" />
            </Array>
          </mxGeometry>
        </mxCell>
        <mxCell id="7au_PphxwlcLs9A8Q_GM-40" style="edgeStyle=orthogonalEdgeStyle;rounded=0;orthogonalLoop=1;jettySize=auto;html=1;exitX=1;exitY=0.25;exitDx=0;exitDy=0;entryX=-0.025;entryY=0.363;entryDx=0;entryDy=0;entryPerimeter=0;" edge="1" parent="1" source="7au_PphxwlcLs9A8Q_GM-1" target="7au_PphxwlcLs9A8Q_GM-2">
          <mxGeometry relative="1" as="geometry" />
        </mxCell>
        <mxCell id="7au_PphxwlcLs9A8Q_GM-1" value="前端" style="whiteSpace=wrap;html=1;aspect=fixed;" vertex="1" parent="1">
          <mxGeometry x="-260" y="530" width="120" height="120" as="geometry" />
        </mxCell>
        <mxCell id="7au_PphxwlcLs9A8Q_GM-38" style="edgeStyle=orthogonalEdgeStyle;rounded=0;orthogonalLoop=1;jettySize=auto;html=1;exitX=1;exitY=0.25;exitDx=0;exitDy=0;entryX=0;entryY=0.25;entryDx=0;entryDy=0;" edge="1" parent="1" source="7au_PphxwlcLs9A8Q_GM-2" target="7au_PphxwlcLs9A8Q_GM-3">
          <mxGeometry relative="1" as="geometry" />
        </mxCell>
        <mxCell id="7au_PphxwlcLs9A8Q_GM-52" value="用户名密码" style="edgeLabel;html=1;align=center;verticalAlign=middle;resizable=0;points=[];" vertex="1" connectable="0" parent="7au_PphxwlcLs9A8Q_GM-38">
          <mxGeometry x="-0.3067" y="3" relative="1" as="geometry">
            <mxPoint as="offset" />
          </mxGeometry>
        </mxCell>
        <mxCell id="7au_PphxwlcLs9A8Q_GM-41" style="edgeStyle=orthogonalEdgeStyle;rounded=0;orthogonalLoop=1;jettySize=auto;html=1;exitX=0;exitY=0.75;exitDx=0;exitDy=0;entryX=1;entryY=0.75;entryDx=0;entryDy=0;" edge="1" parent="1" source="7au_PphxwlcLs9A8Q_GM-2" target="7au_PphxwlcLs9A8Q_GM-1">
          <mxGeometry relative="1" as="geometry" />
        </mxCell>
        <mxCell id="7au_PphxwlcLs9A8Q_GM-2" value="登录接口" style="whiteSpace=wrap;html=1;aspect=fixed;" vertex="1" parent="1">
          <mxGeometry x="-30" y="500" width="160" height="160" as="geometry" />
        </mxCell>
        <mxCell id="7au_PphxwlcLs9A8Q_GM-27" style="edgeStyle=orthogonalEdgeStyle;rounded=0;orthogonalLoop=1;jettySize=auto;html=1;exitX=1;exitY=0.25;exitDx=0;exitDy=0;entryX=0;entryY=0.25;entryDx=0;entryDy=0;" edge="1" parent="1" source="7au_PphxwlcLs9A8Q_GM-3" target="7au_PphxwlcLs9A8Q_GM-4">
          <mxGeometry relative="1" as="geometry" />
        </mxCell>
        <mxCell id="7au_PphxwlcLs9A8Q_GM-39" style="edgeStyle=orthogonalEdgeStyle;rounded=0;orthogonalLoop=1;jettySize=auto;html=1;exitX=0;exitY=0.75;exitDx=0;exitDy=0;entryX=1;entryY=0.75;entryDx=0;entryDy=0;" edge="1" parent="1" source="7au_PphxwlcLs9A8Q_GM-3" target="7au_PphxwlcLs9A8Q_GM-2">
          <mxGeometry relative="1" as="geometry" />
        </mxCell>
        <mxCell id="7au_PphxwlcLs9A8Q_GM-51" value="返回jwt token" style="edgeLabel;html=1;align=center;verticalAlign=middle;resizable=0;points=[];" vertex="1" connectable="0" parent="7au_PphxwlcLs9A8Q_GM-39">
          <mxGeometry x="0.2944" relative="1" as="geometry">
            <mxPoint as="offset" />
          </mxGeometry>
        </mxCell>
        <mxCell id="7au_PphxwlcLs9A8Q_GM-43" style="edgeStyle=orthogonalEdgeStyle;rounded=0;orthogonalLoop=1;jettySize=auto;html=1;" edge="1" parent="1" source="7au_PphxwlcLs9A8Q_GM-3" target="7au_PphxwlcLs9A8Q_GM-7">
          <mxGeometry relative="1" as="geometry" />
        </mxCell>
        <mxCell id="7au_PphxwlcLs9A8Q_GM-3" value="NuxeoAuthenticationFilter&lt;br&gt;(基本校验)" style="whiteSpace=wrap;html=1;aspect=fixed;" vertex="1" parent="1">
          <mxGeometry x="280" y="500" width="160" height="160" as="geometry" />
        </mxCell>
        <mxCell id="7au_PphxwlcLs9A8Q_GM-28" style="edgeStyle=orthogonalEdgeStyle;rounded=0;orthogonalLoop=1;jettySize=auto;html=1;exitX=0;exitY=0.75;exitDx=0;exitDy=0;entryX=1;entryY=0.75;entryDx=0;entryDy=0;" edge="1" parent="1" source="7au_PphxwlcLs9A8Q_GM-4" target="7au_PphxwlcLs9A8Q_GM-3">
          <mxGeometry relative="1" as="geometry" />
        </mxCell>
        <mxCell id="7au_PphxwlcLs9A8Q_GM-29" style="edgeStyle=orthogonalEdgeStyle;rounded=0;orthogonalLoop=1;jettySize=auto;html=1;exitX=0.25;exitY=0;exitDx=0;exitDy=0;entryX=0.25;entryY=1;entryDx=0;entryDy=0;" edge="1" parent="1" source="7au_PphxwlcLs9A8Q_GM-4" target="7au_PphxwlcLs9A8Q_GM-5">
          <mxGeometry relative="1" as="geometry">
            <Array as="points">
              <mxPoint x="610" y="450" />
              <mxPoint x="610" y="450" />
            </Array>
          </mxGeometry>
        </mxCell>
        <mxCell id="7au_PphxwlcLs9A8Q_GM-47" value="用户名密码放入自定义拦截器" style="edgeLabel;html=1;align=center;verticalAlign=middle;resizable=0;points=[];" vertex="1" connectable="0" parent="7au_PphxwlcLs9A8Q_GM-29">
          <mxGeometry x="0.2667" y="4" relative="1" as="geometry">
            <mxPoint as="offset" />
          </mxGeometry>
        </mxCell>
        <mxCell id="7au_PphxwlcLs9A8Q_GM-4" value="NuxeoAuthenticationProvider&lt;br&gt;(通过拦截器连接nuxeo对用户登录信息进行认证)" style="whiteSpace=wrap;html=1;aspect=fixed;" vertex="1" parent="1">
          <mxGeometry x="570" y="500" width="160" height="160" as="geometry" />
        </mxCell>
        <mxCell id="7au_PphxwlcLs9A8Q_GM-30" style="edgeStyle=orthogonalEdgeStyle;rounded=0;orthogonalLoop=1;jettySize=auto;html=1;exitX=0.75;exitY=1;exitDx=0;exitDy=0;entryX=0.75;entryY=0;entryDx=0;entryDy=0;" edge="1" parent="1" source="7au_PphxwlcLs9A8Q_GM-5" target="7au_PphxwlcLs9A8Q_GM-4">
          <mxGeometry relative="1" as="geometry" />
        </mxCell>
        <mxCell id="7au_PphxwlcLs9A8Q_GM-36" style="edgeStyle=orthogonalEdgeStyle;rounded=0;orthogonalLoop=1;jettySize=auto;html=1;exitX=1;exitY=0.25;exitDx=0;exitDy=0;entryX=0;entryY=0;entryDx=0;entryDy=48.75;entryPerimeter=0;" edge="1" parent="1" source="7au_PphxwlcLs9A8Q_GM-5" target="7au_PphxwlcLs9A8Q_GM-21">
          <mxGeometry relative="1" as="geometry" />
        </mxCell>
        <mxCell id="7au_PphxwlcLs9A8Q_GM-46" value="nuxeo用户名密码登录认证" style="edgeLabel;html=1;align=center;verticalAlign=middle;resizable=0;points=[];" vertex="1" connectable="0" parent="7au_PphxwlcLs9A8Q_GM-36">
          <mxGeometry x="-0.2253" y="-2" relative="1" as="geometry">
            <mxPoint x="16" as="offset" />
          </mxGeometry>
        </mxCell>
        <mxCell id="7au_PphxwlcLs9A8Q_GM-5" value="CustomBasicAuthInterceptor" style="whiteSpace=wrap;html=1;aspect=fixed;" vertex="1" parent="1">
          <mxGeometry x="570" y="220" width="160" height="160" as="geometry" />
        </mxCell>
        <mxCell id="7au_PphxwlcLs9A8Q_GM-18" style="edgeStyle=orthogonalEdgeStyle;rounded=0;orthogonalLoop=1;jettySize=auto;html=1;entryX=0.5;entryY=0;entryDx=0;entryDy=0;entryPerimeter=0;" edge="1" parent="1" source="7au_PphxwlcLs9A8Q_GM-7" target="7au_PphxwlcLs9A8Q_GM-8">
          <mxGeometry relative="1" as="geometry" />
        </mxCell>
        <mxCell id="7au_PphxwlcLs9A8Q_GM-7" value="如果认证通过，以docpalSessionId(uuid)作为key,用户信息(nuxeoSessionId等等)作为value存入redis，并设置过期时间，最后使用docpalSessionId生成一个jwt返回给前端" style="shape=note;whiteSpace=wrap;html=1;backgroundOutline=1;darkOpacity=0.05;" vertex="1" parent="1">
          <mxGeometry x="275" y="750" width="170" height="160" as="geometry" />
        </mxCell>
        <mxCell id="7au_PphxwlcLs9A8Q_GM-45" style="edgeStyle=orthogonalEdgeStyle;rounded=0;orthogonalLoop=1;jettySize=auto;html=1;exitX=0.855;exitY=1;exitDx=0;exitDy=-4.35;exitPerimeter=0;entryX=0.75;entryY=0;entryDx=0;entryDy=0;" edge="1" parent="1" source="7au_PphxwlcLs9A8Q_GM-8" target="7au_PphxwlcLs9A8Q_GM-10">
          <mxGeometry relative="1" as="geometry" />
        </mxCell>
        <mxCell id="7au_PphxwlcLs9A8Q_GM-8" value="Redis" style="shape=cylinder3;whiteSpace=wrap;html=1;boundedLbl=1;backgroundOutline=1;size=15;" vertex="1" parent="1">
          <mxGeometry x="307.5" y="980" width="105" height="90" as="geometry" />
        </mxCell>
        <mxCell id="7au_PphxwlcLs9A8Q_GM-54" style="edgeStyle=orthogonalEdgeStyle;rounded=0;orthogonalLoop=1;jettySize=auto;html=1;exitX=1;exitY=0.25;exitDx=0;exitDy=0;entryX=0;entryY=0.25;entryDx=0;entryDy=0;" edge="1" parent="1" source="7au_PphxwlcLs9A8Q_GM-9" target="7au_PphxwlcLs9A8Q_GM-10">
          <mxGeometry relative="1" as="geometry" />
        </mxCell>
        <mxCell id="7au_PphxwlcLs9A8Q_GM-56" style="edgeStyle=orthogonalEdgeStyle;rounded=0;orthogonalLoop=1;jettySize=auto;html=1;exitX=0;exitY=0.75;exitDx=0;exitDy=0;entryX=1;entryY=0.75;entryDx=0;entryDy=0;" edge="1" parent="1" source="7au_PphxwlcLs9A8Q_GM-9" target="7au_PphxwlcLs9A8Q_GM-11">
          <mxGeometry relative="1" as="geometry" />
        </mxCell>
        <mxCell id="7au_PphxwlcLs9A8Q_GM-57" value="返回请求结果" style="edgeLabel;html=1;align=center;verticalAlign=middle;resizable=0;points=[];" vertex="1" connectable="0" parent="7au_PphxwlcLs9A8Q_GM-56">
          <mxGeometry x="0.2521" y="1" relative="1" as="geometry">
            <mxPoint as="offset" />
          </mxGeometry>
        </mxCell>
        <mxCell id="7au_PphxwlcLs9A8Q_GM-59" style="edgeStyle=orthogonalEdgeStyle;rounded=0;orthogonalLoop=1;jettySize=auto;html=1;" edge="1" parent="1" source="7au_PphxwlcLs9A8Q_GM-9" target="7au_PphxwlcLs9A8Q_GM-58">
          <mxGeometry relative="1" as="geometry" />
        </mxCell>
        <mxCell id="7au_PphxwlcLs9A8Q_GM-9" value="JwtAuthenticationFilter&lt;br&gt;(基本校验)" style="whiteSpace=wrap;html=1;aspect=fixed;" vertex="1" parent="1">
          <mxGeometry x="40" y="1180" width="160" height="160" as="geometry" />
        </mxCell>
        <mxCell id="7au_PphxwlcLs9A8Q_GM-44" style="edgeStyle=orthogonalEdgeStyle;rounded=0;orthogonalLoop=1;jettySize=auto;html=1;exitX=0.25;exitY=0;exitDx=0;exitDy=0;entryX=0.145;entryY=1;entryDx=0;entryDy=-4.35;entryPerimeter=0;" edge="1" parent="1" source="7au_PphxwlcLs9A8Q_GM-10" target="7au_PphxwlcLs9A8Q_GM-8">
          <mxGeometry relative="1" as="geometry" />
        </mxCell>
        <mxCell id="7au_PphxwlcLs9A8Q_GM-53" value="根据docpalSessionId查询对应的key" style="edgeLabel;html=1;align=center;verticalAlign=middle;resizable=0;points=[];" vertex="1" connectable="0" parent="7au_PphxwlcLs9A8Q_GM-44">
          <mxGeometry x="-0.2285" relative="1" as="geometry">
            <mxPoint x="-40" y="-15" as="offset" />
          </mxGeometry>
        </mxCell>
        <mxCell id="7au_PphxwlcLs9A8Q_GM-55" style="edgeStyle=orthogonalEdgeStyle;rounded=0;orthogonalLoop=1;jettySize=auto;html=1;exitX=0;exitY=0.75;exitDx=0;exitDy=0;entryX=1;entryY=0.75;entryDx=0;entryDy=0;" edge="1" parent="1" source="7au_PphxwlcLs9A8Q_GM-10" target="7au_PphxwlcLs9A8Q_GM-9">
          <mxGeometry relative="1" as="geometry" />
        </mxCell>
        <mxCell id="7au_PphxwlcLs9A8Q_GM-10" value="JwtAuthenticationProvider&lt;br&gt;(根据jwt token中的docpalSessionId，在redis查询对应的key)" style="whiteSpace=wrap;html=1;aspect=fixed;" vertex="1" parent="1">
          <mxGeometry x="285" y="1180" width="160" height="160" as="geometry" />
        </mxCell>
        <mxCell id="7au_PphxwlcLs9A8Q_GM-12" style="edgeStyle=orthogonalEdgeStyle;rounded=0;orthogonalLoop=1;jettySize=auto;html=1;exitX=1;exitY=0.25;exitDx=0;exitDy=0;entryX=0;entryY=0.25;entryDx=0;entryDy=0;" edge="1" parent="1" source="7au_PphxwlcLs9A8Q_GM-11" target="7au_PphxwlcLs9A8Q_GM-9">
          <mxGeometry relative="1" as="geometry" />
        </mxCell>
        <mxCell id="7au_PphxwlcLs9A8Q_GM-13" value="携带token发起请求" style="edgeLabel;html=1;align=center;verticalAlign=middle;resizable=0;points=[];" vertex="1" connectable="0" parent="7au_PphxwlcLs9A8Q_GM-12">
          <mxGeometry x="-0.2242" y="-3" relative="1" as="geometry">
            <mxPoint as="offset" />
          </mxGeometry>
        </mxCell>
        <mxCell id="7au_PphxwlcLs9A8Q_GM-11" value="前端" style="whiteSpace=wrap;html=1;aspect=fixed;" vertex="1" parent="1">
          <mxGeometry x="-340" y="1180" width="150" height="150" as="geometry" />
        </mxCell>
        <mxCell id="7au_PphxwlcLs9A8Q_GM-37" style="edgeStyle=orthogonalEdgeStyle;rounded=0;orthogonalLoop=1;jettySize=auto;html=1;exitX=0;exitY=0;exitDx=0;exitDy=116.25;exitPerimeter=0;entryX=1;entryY=0.75;entryDx=0;entryDy=0;" edge="1" parent="1" source="7au_PphxwlcLs9A8Q_GM-21" target="7au_PphxwlcLs9A8Q_GM-5">
          <mxGeometry relative="1" as="geometry" />
        </mxCell>
        <mxCell id="7au_PphxwlcLs9A8Q_GM-21" value="Nuxeo Platform" style="shape=cylinder3;whiteSpace=wrap;html=1;boundedLbl=1;backgroundOutline=1;size=15;" vertex="1" parent="1">
          <mxGeometry x="980" y="217.5" width="170" height="165" as="geometry" />
        </mxCell>
        <mxCell id="7au_PphxwlcLs9A8Q_GM-58" value="如果认证通过，进入api对应的控制层，进行业务代码处理" style="shape=note;whiteSpace=wrap;html=1;backgroundOutline=1;darkOpacity=0.05;" vertex="1" parent="1">
          <mxGeometry x="35" y="1440" width="170" height="160" as="geometry" />
        </mxCell>
      </root>
    </mxGraphModel>
  </diagram>
</mxfile>
